<?xml version="1.0" encoding="UTF-8"?>
<!DOCTYPE svg PUBLIC "-//W3C//DTD SVG 1.1//EN" "http://www.w3.org/Graphics/SVG/1.1/DTD/svg11.dtd">
<svg version="1.1" xmlns="http://www.w3.org/2000/svg" xmlns:xlink="http://www.w3.org/1999/xlink" x="0" y="0" width="100" height="100" viewBox="0, 0, 100, 100">
  <g id="Layer_2" display="none">
    <path d="M0,-1.064 L100,-1.064 L100,100 L0,100 L0,-1.064 z" fill="#B34343"/>
  </g>
  <g id="Layer_1">
    <g>
      <path d="M11.188,11.188 L11.188,88.812 L88.812,88.812 L88.812,11.188 L11.188,11.188 z M86.812,86.812 L13.188,86.812 L13.188,13.188 L86.812,13.188 L86.812,86.812 z" fill="#000000"/>
      <path d="M36.778,75.927 C40.918,78.036 45.356,79.107 49.973,79.107 L49.973,79.107 C60.983,79.107 70.925,73.021 75.919,63.224 C79.449,56.296 80.072,48.409 77.67,41.013 C75.27,33.618 70.133,27.603 63.209,24.074 C59.068,21.963 54.629,20.893 50.015,20.893 C39.005,20.893 29.061,26.985 24.062,36.79 C16.777,51.083 22.481,68.639 36.778,75.927 z M67.18,70.979 C67.418,70.75 67.697,70.506 68.021,70.262 C67.745,70.507 67.464,70.746 67.18,70.979 z M65.641,69.466 L59.37,60.109 C60.428,59.264 61.331,58.013 61.866,57.183 L71.989,62.342 C70.126,66.308 67.05,68.583 65.641,69.466 z M59.098,54.65 C57.346,58.088 53.85,60.223 49.976,60.223 C48.357,60.223 46.801,59.848 45.35,59.109 C40.327,56.548 38.322,50.382 40.879,45.363 C42.636,41.918 46.135,39.777 50.009,39.777 C51.627,39.777 53.185,40.152 54.637,40.892 C57.065,42.128 58.866,44.243 59.711,46.843 C60.555,49.445 60.338,52.217 59.098,54.65 z M25.844,37.699 C30.499,28.566 39.761,22.893 50.015,22.893 C54.311,22.893 58.444,23.89 62.301,25.855 C68.749,29.142 73.531,34.745 75.768,41.63 C77.953,48.356 77.452,55.518 74.366,61.858 L74.548,61.402 L61.298,54.649 C62.403,51.97 62.52,49.015 61.614,46.226 C60.604,43.117 58.45,40.589 55.546,39.109 C53.81,38.224 51.947,37.777 50.01,37.777 C45.38,37.777 41.198,40.336 39.099,44.455 C36.04,50.457 38.437,57.83 44.443,60.892 C46.177,61.776 48.039,62.224 49.977,62.224 C52.525,62.224 54.935,61.452 56.937,60.071 L64.983,72.604 C60.629,75.493 55.443,77.108 49.974,77.108 C45.676,77.108 41.542,76.112 37.687,74.146 C24.371,67.359 19.059,51.009 25.844,37.699 z" fill="#000000"/>
      <path d="M53.994,42.171 C49.675,39.97 44.375,41.692 42.172,46.015 C39.975,50.328 41.693,55.628 46.012,57.829 C50.325,60.026 55.628,58.306 57.826,53.994 C60.03,49.672 58.305,44.369 53.994,42.171 z M53.887,51.986 C52.794,54.132 50.166,54.986 48.02,53.892 C45.87,52.796 45.016,50.167 46.11,48.021 C47.207,45.869 49.836,45.015 51.985,46.111 C54.132,47.206 54.985,49.833 53.887,51.986 z" fill="#FFFFFF"/>
      <path d="M78.997,43.801 C79.254,45.168 79.855,46.721 80.552,48.518 C82.384,53.248 84.665,59.135 81.769,64.789 C80.845,66.59 80.06,68.079 79.388,69.326 C78.32,69.115 77.187,69.558 76.575,70.535 L71.846,78.064 C71.052,79.329 71.433,80.999 72.7,81.793 C73.966,82.588 75.635,82.207 76.429,80.941 L81.158,73.413 C81.757,72.459 81.686,71.278 81.077,70.414 C81.77,69.125 82.586,67.58 83.55,65.701 C86.857,59.248 84.292,52.629 82.419,47.796 C81.758,46.09 81.187,44.616 80.964,43.432 C80.308,39.948 80.554,35.963 80.715,34.211 L83.112,34.526 L85.202,18.664 L78.594,17.792 L76.503,33.654 L78.729,33.948 C78.552,35.765 78.278,39.985 78.997,43.801 z M80.314,20.038 L82.957,20.386 L81.389,32.283 L78.746,31.934 L80.314,20.038 z" fill="#000000"/>
    </g>
  </g>
</svg>
